PathFileType	4	(X/Y/Z)	E:\Qualisys_Data\Carbon_Farble_Plate\Data\Amateur_Runner\S14\T1\S14T1V24_c3d.trc
DataRate	CameraRate	NumFrames	NumMarkers	Units	OrigDataRate	OrigDataStartFrame	OrigNumFrames
200.000000	200.000000	4	39	mm	200.000000	196	314
Frame#	Time	LSHO			RSHO			LICST			RICST			LASIS			LHEEL			RASIS			LTROC			RTROC			SACR			LTH1			LSK4			LTH2			LTH3			RHM5			LSK2			LTH4			RTH1			LTOE			RTH2			RTH3			RTH4			LLEP			RLEP			LSK1			LSK3			RSK1			LHM5			RSK2			LFT1			RSK3			RSK4			LLME			RLME			RTOE			RHEEL			RFT1			RFT2			LFT2			
		X1	Y1	Z1	X2	Y2	Z2	X3	Y3	Z3	X4	Y4	Z4	X5	Y5	Z5	X6	Y6	Z6	X7	Y7	Z7	X8	Y8	Z8	X9	Y9	Z9	X10	Y10	Z10	X11	Y11	Z11	X12	Y12	Z12	X13	Y13	Z13	X14	Y14	Z14	X15	Y15	Z15	X16	Y16	Z16	X17	Y17	Z17	X18	Y18	Z18	X19	Y19	Z19	X20	Y20	Z20	X21	Y21	Z21	X22	Y22	Z22	X23	Y23	Z23	X24	Y24	Z24	X25	Y25	Z25	X26	Y26	Z26	X27	Y27	Z27	X28	Y28	Z28	X29	Y29	Z29	X30	Y30	Z30	X31	Y31	Z31	X32	Y32	Z32	X33	Y33	Z33	X34	Y34	Z34	X35	Y35	Z35	X36	Y36	Z36	X37	Y37	Z37	X38	Y38	Z38	X39	Y39	Z39	

197	0.98	1095.102172851562	1406.145629882812	-525.0315551757812	1179.260864257812	1399.066162109375	-240.8408813476562	1103.692260742188	956.6254272460938	-516.115478515625	1128.931030273438	945.5558471679688	-236.3884429931641	1145.108276367188	905.8814697265624	-486.5401000976562	917.7482299804688	485.194580078125	-401.2401733398438	1151.581298828125	902.6224975585938	-254.6585083007812	1018.147033691406	839.8911743164062	-542.1350708007812	995.0350952148438	863.4014282226562	-218.4028778076172	978.8012084960938	962.0056762695312	-376.8252258300781	1236.97509765625	693.5970458984375	-543.7006225585938	1114.718994140625	531.5918579101562	-489.4892578125	1181.417602539062	640.6630249023438	-524.1980590820312	1310.294067382812	627.5750732421875	-523.7108764648438	771.3988037109375	56.30591201782227	-240.5283355712891	1205.539672851562	561.5552368164062	-514.1525268554688	1251.978271484375	577.112548828125	-501.6592407226562	1062.103515625	605.5435791015625	-220.3944549560547	1012.996276855469	245.4957733154297	-431.7577514648438	989.4627075195312	631.3920288085938	-212.290771484375	1031.59326171875	514.2540893554688	-254.4624633789062	953.3783569335938	538.3271484375	-234.9416198730469	1317.264282226562	555.0169677734375	-517.7412719726562	949.4788818359376	461.8764953613281	-246.7121276855469	1235.297241210938	486.1300964355469	-501.7197875976562	1139.953491210938	455.7941284179688	-480.4459838867188	904.3861083984376	342.3789978027344	-245.5931243896484	972.8665161132812	303.7991027832031	-490.4166870117188	835.1028442382812	391.1630554199219	-232.9221496582031	898.6113891601562	463.5564880371094	-372.8031921386719	836.9452514648438	263.8244323730469	-259.5480041503906	777.4408569335938	315.000244140625	-245.0358581542969	967.7244262695312	444.8866577148438	-462.1939086914062	690.0839233398438	161.8073120117188	-268.1792907714844	837.5277709960938	44.19614791870117	-304.6527404785156	622.1732177734375	159.7348785400391	-318.4062194824219	621.7479858398438	126.5421676635742	-347.6041870117188	614.665283203125	139.1932220458984	-289.6592407226562	893.4459228515625	472.9822082519531	-428.735595703125
198	0.985	1112.880004882812	1410.584228515625	-525.3060302734375	1200.668212890625	1403.653930664062	-243.2756805419922	1124.933227539062	961.6674194335938	-516.9121704101562	1152.060913085938	948.6155395507812	-237.1085205078125	1166.730102539062	910.9126586914062	-486.7576599121094	946.0289916992188	471.9640502929688	-402.022216796875	1174.400634765625	905.6309814453124	-255.8418273925781	1041.453979492188	845.7508544921875	-543.7557373046875	1016.957824707031	867.4672241210938	-218.3319854736328	1000.989929199219	965.60595703125	-376.3759460449219	1261.517211914062	700.2389526367188	-544.2526245117188	1141.893798828125	528.7926025390625	-489.6147766113281	1206.719970703125	646.5977172851562	-524.755859375	1335.402954101562	634.8372192382812	-524.2153930664062	774.0783081054688	56.94881820678711	-239.6562957763672	1231.146484375	563.8544311523438	-514.0560913085938	1277.31396484375	583.2792358398438	-502.3344421386719	1077.620483398438	609.2381591796875	-221.4048156738281	1055.961059570312	238.0019073486328	-431.0463256835938	1005.929321289062	637.3573608398438	-212.1353912353516	1043.835693359375	519.2587890625	-255.0376892089844	966.342041015625	545.5558471679688	-234.6904144287109	1343.4453125	562.9025268554688	-517.6986083984375	959.8695678710938	468.7431640625	-246.8264007568359	1264.541259765625	489.1797180175781	-501.3846435546875	1170.6181640625	453.9873657226562	-480.2626953125	912.962158203125	349.9899291992188	-244.8503112792969	1012.772827148438	293.3785400390625	-490.0962219238281	843.9352416992188	399.0970764160156	-232.371826171875	927.4810180664062	450.4234924316406	-375.5702209472656	845.2945556640625	271.8710327148438	-258.0609741210938	786.2553100585938	323.0423583984375	-244.4756469726562	999.3494873046876	433.8746643066406	-462.17919921875	698.7101440429688	169.0326538085938	-267.1753845214844	839.1006469726562	43.65649795532227	-303.1489562988281	631.6309814453125	170.4119873046875	-317.8307800292969	630.1038818359375	137.0818481445312	-346.7561340332031	623.335693359375	149.265625	-288.9456787109375	923.8170166015624	458.05615234375	-429.0778503417969
199	0.99	1131.17919921875	1414.832397460938	-525.9186401367188	1221.838500976562	1408.089599609375	-245.6543426513672	1146.589599609375	966.2432861328124	-517.4839477539062	1175.181640625	951.4703369140624	-238.468505859375	1188.606323242188	915.8511962890624	-487.5516052246094	976.79248046875	457.9404602050781	-402.3732604980469	1197.17431640625	908.4423828125	-256.9990234375	1064.05029296875	851.1065063476562	-545.2886352539062	1039.195434570312	871.3660278320312	-218.2036285400391	1023.396484375	969.0426635742188	-376.3443298339844	1285.886596679688	706.4837036132812	-544.54833984375	1168.895385742188	524.6962280273438	-489.9737548828125	1231.375244140625	652.3556518554688	-525.4810180664062	1360.257934570312	641.8173828125	-524.0196533203125	778.0369873046875	57.96079254150391	-239.2963562011719	1256.978271484375	564.4963989257812	-512.615478515625	1302.653076171875	589.024169921875	-503.0741882324219	1092.780639648438	613.0603637695312	-222.2908020019531	1099.476318359375	230.9669952392578	-429.9378356933594	1022.280029296875	643.3900756835938	-211.8102569580078	1056.531616210938	524.0963134765625	-256.0861511230469	980.1717529296876	552.4476928710938	-234.3528289794922	1369.27490234375	570.082763671875	-517.7149658203125	971.4090576171876	476.13671875	-246.3147277832031	1293.97412109375	491.6919555664062	-501.1556091308594	1201.824462890625	452.0574340820312	-480.7256774902344	922.6146850585938	358.0330505371094	-243.5036773681641	1053.075317382812	283.00048828125	-489.5700378417969	853.1221923828125	407.3172607421875	-231.9817810058594	961.3848266601562	434.5024719238281	-375.0408935546875	854.8582763671875	279.3786010742188	-256.466552734375	795.3988647460938	330.9982604980469	-243.9137268066406	1031.764526367188	422.9915161132812	-461.5805358886719	708.8399047851562	175.156005859375	-267.2175598144531	841.1806640625	43.29793930053711	-301.8528137207031	642.67138671875	180.3607788085938	-317.2314453125	639.9318237304688	147.6507568359375	-346.6382751464844	633.0786743164062	159.4696655273438	-288.7944030761719	954.3587036132812	443.1107177734375	-430.188720703125
200	0.995	1149.268676757812	1419.1318359375	-526.2160034179688	1242.76904296875	1412.314697265625	-248.21044921875	1168.930053710938	971.32177734375	-517.9844360351562	1198.21240234375	954.70703125	-239.412841796875	1210.671752929688	920.8085327148438	-488.4501647949219	1007.745849609375	443.8774108886719	-403.0976867675781	1219.528076171875	911.0035400390624	-258.3151550292969	1086.980834960938	856.32568359375	-546.8722534179688	1061.2822265625	875.5862426757812	-218.1425628662109	1045.815307617188	972.4194946289062	-376.4489135742188	1309.781372070312	712.36865234375	-545.0266723632812	1196.027587890625	520.9298706054688	-490.3890686035156	1255.941528320312	658.1517944335938	-526.1104736328125	1384.701171875	648.180908203125	-523.9539794921875	780.2385864257812	59.19934463500977	-238.9207763671875	1282.103759765625	565.2341918945312	-512.478759765625	1327.413696289062	595.0660400390625	-504.0566711425781	1109.03076171875	616.9705200195312	-222.4228363037109	1143.036865234375	224.0859832763672	-428.8477172851562	1039.057006835938	649.080322265625	-211.4183197021484	1069.551513671875	529.2357788085938	-256.2723083496094	994.306640625	559.4474487304688	-234.1421051025391	1394.468017578125	577.16162109375	-517.6375732421875	982.6760864257812	483.3526916503906	-245.6804046630859	1323.209350585938	493.1413269042969	-500.1573486328125	1232.8740234375	449.7856140136719	-481.1353759765625	932.9804077148438	366.3110046386719	-242.4707336425781	1094.0947265625	273.0715026855469	-488.6510314941406	863.668701171875	415.6857299804688	-231.3647766113281	993.0441284179688	419.792236328125	-375.4652709960938	864.8699340820312	287.4595947265625	-254.9456939697266	805.7141723632812	338.9803466796875	-243.5253295898438	1064.59326171875	410.9255065917969	-461.9685363769531	719.5419311523438	182.4763031005859	-266.9109497070312	843.7081909179688	42.56632995605469	-300.4907836914062	654.7532958984375	191.5916290283203	-316.3927612304688	650.57861328125	158.7643890380859	-346.8311462402344	644.3548583984375	170.4540557861328	-289.2180480957031	985.7783203125	427.5384826660156	-430.2510070800781
